<mxfile host="app.diagrams.net" agent="Mozilla/5.0 (Windows NT 10.0; Win64; x64) AppleWebKit/537.36 (KHTML, like Gecko) Chrome/128.0.0.0 Safari/537.36" version="24.7.14">
  <diagram name="第 1 页" id="kraDj5OBhRd8Bf-FGJ6f">
    <mxGraphModel dx="1185" dy="627" grid="1" gridSize="10" guides="1" tooltips="1" connect="1" arrows="1" fold="1" page="1" pageScale="1" pageWidth="827" pageHeight="1169" math="0" shadow="0">
      <root>
        <mxCell id="0" />
        <mxCell id="1" parent="0" />
        <mxCell id="261Ipv7iolyu-o9THxub-1" value="Air Quality" style="rounded=0;whiteSpace=wrap;html=1;" vertex="1" parent="1">
          <mxGeometry x="330" y="200" width="120" height="60" as="geometry" />
        </mxCell>
        <mxCell id="261Ipv7iolyu-o9THxub-3" value="Car Exhaust" style="ellipse;whiteSpace=wrap;html=1;" vertex="1" parent="1">
          <mxGeometry x="60" y="360" width="130" height="80" as="geometry" />
        </mxCell>
        <mxCell id="261Ipv7iolyu-o9THxub-4" value="..." style="ellipse;whiteSpace=wrap;html=1;" vertex="1" parent="1">
          <mxGeometry x="640" y="460" width="130" height="80" as="geometry" />
        </mxCell>
        <mxCell id="261Ipv7iolyu-o9THxub-5" value="Industries" style="ellipse;whiteSpace=wrap;html=1;" vertex="1" parent="1">
          <mxGeometry x="240" y="360" width="130" height="80" as="geometry" />
        </mxCell>
        <mxCell id="261Ipv7iolyu-o9THxub-6" value="Subway Grates" style="ellipse;whiteSpace=wrap;html=1;" vertex="1" parent="1">
          <mxGeometry x="440" y="360" width="130" height="80" as="geometry" />
        </mxCell>
        <mxCell id="261Ipv7iolyu-o9THxub-7" value="" style="endArrow=classic;html=1;rounded=0;exitX=0.5;exitY=0;exitDx=0;exitDy=0;entryX=0;entryY=1;entryDx=0;entryDy=0;" edge="1" parent="1" source="261Ipv7iolyu-o9THxub-3" target="261Ipv7iolyu-o9THxub-1">
          <mxGeometry width="50" height="50" relative="1" as="geometry">
            <mxPoint x="470" y="420" as="sourcePoint" />
            <mxPoint x="520" y="370" as="targetPoint" />
          </mxGeometry>
        </mxCell>
        <mxCell id="261Ipv7iolyu-o9THxub-8" value="" style="endArrow=classic;html=1;rounded=0;exitX=0.5;exitY=0;exitDx=0;exitDy=0;entryX=0.5;entryY=1;entryDx=0;entryDy=0;" edge="1" parent="1" source="261Ipv7iolyu-o9THxub-5" target="261Ipv7iolyu-o9THxub-1">
          <mxGeometry width="50" height="50" relative="1" as="geometry">
            <mxPoint x="470" y="420" as="sourcePoint" />
            <mxPoint x="520" y="370" as="targetPoint" />
          </mxGeometry>
        </mxCell>
        <mxCell id="261Ipv7iolyu-o9THxub-10" value="Covid" style="ellipse;whiteSpace=wrap;html=1;" vertex="1" parent="1">
          <mxGeometry x="220" y="460" width="130" height="80" as="geometry" />
        </mxCell>
        <mxCell id="261Ipv7iolyu-o9THxub-11" value="Weather conditions" style="ellipse;whiteSpace=wrap;html=1;" vertex="1" parent="1">
          <mxGeometry x="260" y="630" width="130" height="80" as="geometry" />
        </mxCell>
        <mxCell id="261Ipv7iolyu-o9THxub-12" value="Car numbers" style="ellipse;whiteSpace=wrap;html=1;" vertex="1" parent="1">
          <mxGeometry x="30" y="505" width="130" height="80" as="geometry" />
        </mxCell>
        <mxCell id="261Ipv7iolyu-o9THxub-13" value="" style="endArrow=classic;html=1;rounded=0;exitX=0.5;exitY=0;exitDx=0;exitDy=0;entryX=0.5;entryY=1;entryDx=0;entryDy=0;" edge="1" parent="1" source="261Ipv7iolyu-o9THxub-12" target="261Ipv7iolyu-o9THxub-3">
          <mxGeometry width="50" height="50" relative="1" as="geometry">
            <mxPoint x="470" y="420" as="sourcePoint" />
            <mxPoint x="520" y="370" as="targetPoint" />
          </mxGeometry>
        </mxCell>
        <mxCell id="261Ipv7iolyu-o9THxub-14" value="" style="endArrow=classic;html=1;rounded=0;exitX=0.177;exitY=0.123;exitDx=0;exitDy=0;exitPerimeter=0;" edge="1" parent="1" source="261Ipv7iolyu-o9THxub-11" target="261Ipv7iolyu-o9THxub-12">
          <mxGeometry width="50" height="50" relative="1" as="geometry">
            <mxPoint x="470" y="420" as="sourcePoint" />
            <mxPoint x="520" y="370" as="targetPoint" />
          </mxGeometry>
        </mxCell>
        <mxCell id="261Ipv7iolyu-o9THxub-15" value="" style="endArrow=classic;html=1;rounded=0;entryX=0.5;entryY=1;entryDx=0;entryDy=0;" edge="1" parent="1" source="261Ipv7iolyu-o9THxub-11" target="261Ipv7iolyu-o9THxub-3">
          <mxGeometry width="50" height="50" relative="1" as="geometry">
            <mxPoint x="250" y="590" as="sourcePoint" />
            <mxPoint x="520" y="370" as="targetPoint" />
          </mxGeometry>
        </mxCell>
        <mxCell id="261Ipv7iolyu-o9THxub-16" value="" style="endArrow=classic;html=1;rounded=0;exitX=0.819;exitY=0.116;exitDx=0;exitDy=0;exitPerimeter=0;entryX=0.5;entryY=1;entryDx=0;entryDy=0;" edge="1" parent="1" source="261Ipv7iolyu-o9THxub-11" target="261Ipv7iolyu-o9THxub-6">
          <mxGeometry width="50" height="50" relative="1" as="geometry">
            <mxPoint x="470" y="420" as="sourcePoint" />
            <mxPoint x="520" y="370" as="targetPoint" />
          </mxGeometry>
        </mxCell>
        <mxCell id="261Ipv7iolyu-o9THxub-17" value="" style="endArrow=classic;html=1;rounded=0;exitX=0.608;exitY=0.03;exitDx=0;exitDy=0;exitPerimeter=0;entryX=0.599;entryY=1.017;entryDx=0;entryDy=0;entryPerimeter=0;" edge="1" parent="1" source="261Ipv7iolyu-o9THxub-11" target="261Ipv7iolyu-o9THxub-1">
          <mxGeometry width="50" height="50" relative="1" as="geometry">
            <mxPoint x="470" y="420" as="sourcePoint" />
            <mxPoint x="520" y="370" as="targetPoint" />
          </mxGeometry>
        </mxCell>
        <mxCell id="261Ipv7iolyu-o9THxub-18" value="" style="endArrow=classic;html=1;rounded=0;exitX=0.077;exitY=0.25;exitDx=0;exitDy=0;exitPerimeter=0;" edge="1" parent="1" source="261Ipv7iolyu-o9THxub-10" target="261Ipv7iolyu-o9THxub-3">
          <mxGeometry width="50" height="50" relative="1" as="geometry">
            <mxPoint x="470" y="480" as="sourcePoint" />
            <mxPoint x="520" y="430" as="targetPoint" />
          </mxGeometry>
        </mxCell>
        <mxCell id="261Ipv7iolyu-o9THxub-19" value="" style="endArrow=classic;html=1;rounded=0;entryX=0.792;entryY=0.913;entryDx=0;entryDy=0;entryPerimeter=0;" edge="1" parent="1" source="261Ipv7iolyu-o9THxub-10" target="261Ipv7iolyu-o9THxub-5">
          <mxGeometry width="50" height="50" relative="1" as="geometry">
            <mxPoint x="470" y="480" as="sourcePoint" />
            <mxPoint x="520" y="430" as="targetPoint" />
          </mxGeometry>
        </mxCell>
        <mxCell id="261Ipv7iolyu-o9THxub-20" value="Festivals" style="ellipse;whiteSpace=wrap;html=1;" vertex="1" parent="1">
          <mxGeometry x="480" y="550" width="130" height="80" as="geometry" />
        </mxCell>
        <mxCell id="261Ipv7iolyu-o9THxub-21" value="" style="endArrow=classic;html=1;rounded=0;entryX=1.014;entryY=0.593;entryDx=0;entryDy=0;entryPerimeter=0;" edge="1" parent="1" source="261Ipv7iolyu-o9THxub-20" target="261Ipv7iolyu-o9THxub-12">
          <mxGeometry width="50" height="50" relative="1" as="geometry">
            <mxPoint x="470" y="480" as="sourcePoint" />
            <mxPoint x="520" y="430" as="targetPoint" />
          </mxGeometry>
        </mxCell>
        <mxCell id="261Ipv7iolyu-o9THxub-22" value="" style="endArrow=classic;html=1;rounded=0;exitX=0.5;exitY=0;exitDx=0;exitDy=0;" edge="1" parent="1" source="261Ipv7iolyu-o9THxub-20" target="261Ipv7iolyu-o9THxub-6">
          <mxGeometry width="50" height="50" relative="1" as="geometry">
            <mxPoint x="470" y="480" as="sourcePoint" />
            <mxPoint x="520" y="430" as="targetPoint" />
          </mxGeometry>
        </mxCell>
        <mxCell id="261Ipv7iolyu-o9THxub-23" value="" style="endArrow=classic;html=1;rounded=0;exitX=0.362;exitY=-0.002;exitDx=0;exitDy=0;exitPerimeter=0;entryX=0.875;entryY=1.036;entryDx=0;entryDy=0;entryPerimeter=0;" edge="1" parent="1" source="261Ipv7iolyu-o9THxub-6" target="261Ipv7iolyu-o9THxub-1">
          <mxGeometry width="50" height="50" relative="1" as="geometry">
            <mxPoint x="470" y="480" as="sourcePoint" />
            <mxPoint x="520" y="430" as="targetPoint" />
          </mxGeometry>
        </mxCell>
        <mxCell id="261Ipv7iolyu-o9THxub-24" value="" style="endArrow=classic;html=1;rounded=0;exitX=0.049;exitY=0.691;exitDx=0;exitDy=0;exitPerimeter=0;entryX=0.926;entryY=0.293;entryDx=0;entryDy=0;entryPerimeter=0;" edge="1" parent="1" source="261Ipv7iolyu-o9THxub-10" target="261Ipv7iolyu-o9THxub-12">
          <mxGeometry width="50" height="50" relative="1" as="geometry">
            <mxPoint x="470" y="480" as="sourcePoint" />
            <mxPoint x="520" y="430" as="targetPoint" />
          </mxGeometry>
        </mxCell>
      </root>
    </mxGraphModel>
  </diagram>
</mxfile>
